HIERARCHY
ROOT ui
{
	 OFFSET 0 0 0
	 CHANNELS 3 XPosition YPosition Z Position
	 EndSite
	 {
	 OFFSET 0 -1 0
	 }
}
ROOT li
{
	 OFFSET 0 0 0
	 CHANNELS 3 XPosition YPosition Z Position
	 EndSite
	 {
	 OFFSET 0 -1 0
	 }
}
ROOT ul
{
	 OFFSET 0 0 0
	 CHANNELS 3 XPosition YPosition Z Position
	 EndSite
	 {
	 OFFSET 0 -1 0
	 }
}
ROOT ll
{
	 OFFSET 0 0 0
	 CHANNELS 3 XPosition YPosition Z Position
	 EndSite
	 {
	 OFFSET 0 -1 0
	 }
}
ROOT tt
{
	 OFFSET 0 0 0
	 CHANNELS 3 XPosition YPosition Z Position
	 EndSite
	 {
	 OFFSET 0 -1 0
	 }
}
ROOT tb
{
	 OFFSET 0 0 0
	 CHANNELS 3 XPosition YPosition Z Position
	 EndSite
	 {
	 OFFSET 0 -1 0
	 }
}
ROOT td
{
	 OFFSET 0 0 0
	 CHANNELS 3 XPosition YPosition Z Position
	 EndSite
	 {
	 OFFSET 0 -1 0
	 }
}
ROOT v
{
	 OFFSET 0 0 0
	 CHANNELS 3 XPosition YPosition Z Position
	 EndSite
	 {
	 OFFSET 0 -1 0
	 }
}
ROOT bn
{
	 OFFSET 0 0 0
	 CHANNELS 3 XPosition YPosition Z Position
	 EndSite
	 {
	 OFFSET 0 -1 0
	 }
}
MOTION
Frames: 32
Frame Time: 0.002
-0.012115882873535157	-1.3926799595355988E-4	0		0.25846597290039064	-2.711939208984375	0		-1.0114409790039063	-0.1947834930419922	0		-1.0211488037109375	-2.616949951171875	0		1.35271484375	-1.30268798828125	0		3.0413408203125	-1.0953416748046876	0		4.65553466796875	-0.4867214050292969	0		5.98668408203125	0.5895751342773438	0		-0.1637081756591797	5.88213623046875	0		
0.06590047454833985	6.048009991645813E-4	0		0.31265811157226564	-2.71766796875	0		-0.979374267578125	-0.19677992248535156	0		-1.0337861328125	-2.609219482421875	0		1.3452313232421875	-1.3079273681640624	0		3.038853759765625	-1.0938619384765624	0		4.66453515625	-0.4986665954589844	0		5.98036376953125	0.6154987182617188	0		-0.30383197021484376	5.8622333984375	0		
-0.023088935852050782	0.0050033187866210934	0		0.2559928894042969	-2.7096337890625	0		-1.005464599609375	-0.20584040832519532	0		-1.022710693359375	-2.615861572265625	0		1.35477783203125	-1.30844677734375	0		3.036317138671875	-1.0924072265625	0		4.6588916015625	-0.48540969848632814	0		5.97516796875	0.5997606811523437	0		-0.308623779296875	5.861115234375	0		
0.05981576156616211	7.431650161743164E-4	0		0.29301458740234376	-2.72106103515625	0		-1.0043648681640625	-0.20331695556640625	0		-1.05746826171875	-2.609791259765625	0		1.224482421875	-1.2968729248046875	0		3.033774169921875	-1.0909893798828125	0		4.666056640625	-0.4844056091308594	0		5.98009765625	0.6042843017578124	0		-0.30017312622070313	5.8708037109375	0		
-0.0201501579284668	0.0029320759773254395	0		0.2544271697998047	-2.706353515625	0		-0.9841207885742187	-0.1940517578125	0		-1.0243741455078126	-2.61472216796875	0		1.34991796875	-1.3071573486328125	0		3.034322021484375	-1.08566162109375	0		4.649208984375	-0.4871136474609375	0		5.97377734375	0.62982568359375	0		-0.186573486328125	5.880978515625	0		
0.053926361083984374	8.780869841575622E-4	0		0.27859182739257815	-2.711570068359375	0		-0.9791240844726562	-0.20753428649902345	0		-1.02820263671875	-2.617081298828125	0		1.3463411865234376	-1.3225303955078125	0		3.069732666015625	-1.0948782958984375	0		4.64855517578125	-0.482143310546875	0		5.97167138671875	0.63426904296875	0		-0.19194764709472656	5.88094287109375	0		
-0.020887611389160156	-0.0010659650564193725	0		0.24790092468261718	-2.71101513671875	0		-0.9936953125	-0.1987174835205078	0		-0.9970333251953125	-2.624900634765625	0		1.3371881103515626	-1.31485107421875	0		3.02647802734375	-1.087041748046875	0		4.640859375	-0.4881680297851563	0		5.96965283203125	0.6385022583007812	0		-0.34549325561523436	5.85194677734375	0		
0.05041048812866211	-0.007016342163085937	0		0.24629600524902343	-2.71087548828125	0		-1.0193673095703124	-0.20773870849609374	0		-1.070557373046875	-2.616269775390625	0		1.2209991455078124	-1.317776123046875	0		3.02808544921875	-1.09890478515625	0		4.64430712890625	-0.49444863891601565	0		5.9719072265625	0.6216038208007812	0		-0.3692906494140625	5.85511572265625	0		
0.05315311431884766	0.007982327938079833	0		0.2597717590332031	-2.71293603515625	0		-1.0136580200195313	-0.2011562805175781	0		-1.02905224609375	-2.61416015625	0		1.3539986572265625	-1.3190538330078125	0		3.063950439453125	-1.1032818603515624	0		4.63227490234375	-0.4736322937011719	0		5.970126953125	0.6253526000976563	0		-0.3216618347167969	5.8663544921875	0		
0.04874652099609375	-0.002925257921218872	0		0.27647100830078125	-2.70703076171875	0		-1.0258431396484375	-0.20031304931640626	0		-1.069456787109375	-2.6139541015625	0		1.2133043212890624	-1.3067991943359376	0		3.03626513671875	-1.084900390625	0		4.634025390625	-0.483114990234375	0		5.95942822265625	0.67064013671875	0		-0.34392401123046873	5.8605263671875	0		
0.0417267074584961	0.001201542019844055	0		0.2701314697265625	-2.713834228515625	0		-0.9987935791015625	-0.19593168640136718	0		-1.048715087890625	-2.612498779296875	0		1.33343310546875	-1.3228916015625	0		3.012436767578125	-1.09066015625	0		4.6321005859375	-0.48166531372070315	0		5.954265625	0.6566611328125	0		-0.21450189208984374	5.88082421875	0		
-0.041175048828125	2.45850995182991E-4	0		0.24103547668457032	-2.71036865234375	0		-1.033717041015625	-0.20375505065917968	0		-1.08887451171875	-2.612263916015625	0		1.3319149169921876	-1.322471435546875	0		3.024647705078125	-1.1069449462890626	0		4.62728955078125	-0.48529830932617185	0		5.95289501953125	0.65960400390625	0		-0.3994543762207031	5.8450107421875	0		
0.04308695602416992	-0.002729952096939087	0		0.24000453186035156	-2.710254638671875	0		-0.9904011840820313	-0.20649281311035156	0		-1.0420517578125	-2.62305029296875	0		1.3374537353515625	-1.329167236328125	0		3.0163115234375	-1.0980528564453125	0		4.63466650390625	-0.48719473266601565	0		5.9516513671875	0.6622794799804688	0		-0.3885054931640625	5.8547978515625	0		
-0.04039601135253906	0.0032884728908538817	0		0.21212472534179688	-2.70483154296875	0		-1.0268997802734374	-0.20625233459472656	0		-1.1149248046875	-2.6153916015625	0		1.211352294921875	-1.3153590087890625	0		3.024091064453125	-1.090426513671875	0		4.633228515625	-0.4861004333496094	0		5.96130615234375	0.6816882934570313	0		-0.3572976379394531	5.8603701171875	0		
0.03518629455566406	0.001457231044769287	0		0.2672022705078125	-2.7103720703125	0		-0.97016015625	-0.1980635986328125	0		-1.0418662109375	-2.62140234375	0		1.3381025390625	-1.325523193359375	0		3.029815673828125	-1.097846435546875	0		4.6260166015625	-0.47705224609375	0		5.96448291015625	0.6664325561523438	0		-0.2397593994140625	5.8689833984375	0		
-0.03811111068725586	-6.67851984500885E-4	0		0.23741127014160157	-2.709940673828125	0		-1.041377685546875	-0.19638766479492187	0		-1.046719482421875	-2.6254814453125	0		1.3250789794921876	-1.324095458984375	0		3.050626220703125	-1.1075042724609374	0		4.62667431640625	-0.490204833984375	0		5.963560546875	0.6683497314453125	0		-0.3762840270996094	5.84950927734375	0		
0.02973582649230957	-0.0013810299634933472	0		0.26261749267578127	-2.71513427734375	0		-1.0115430297851562	-0.20083128356933594	0		-1.0484910888671874	-2.627570556640625	0		1.3241314697265625	-1.3238350830078125	0		3.027758056640625	-1.0967376708984375	0		4.63659912109375	-0.4895643615722656	0		5.96272509765625	0.6700275268554687	0		-0.3642015075683594	5.8603544921875	0		
-0.045258262634277346	0.0034934380054473875	0		0.2070181884765625	-2.706438232421875	0		-1.031624267578125	-0.20669485473632812	0		-1.0851357421875	-2.622253173828125	0		1.330183349609375	-1.3306810302734375	0		3.007825927734375	-1.099077392578125	0		4.61463232421875	-0.4876736755371094	0		5.9541220703125	0.671681884765625	0		-0.3990791931152344	5.853728515625	0		
0.035734439849853514	-0.0023440520763397216	0		0.27625082397460937	-2.71711767578125	0		-0.9935193481445312	-0.20417243957519532	0		-1.0708438720703124	-2.626475341796875	0		1.2065499267578126	-1.3141431884765624	0		3.06091796875	-1.1062799072265626	0		4.63269287109375	-0.49132192993164064	0		5.9762578125	0.6723006591796875	0		-0.3495227966308594	5.8661884765625	0		
-0.03908088684082031	0.0025130159854888914	0		0.23775900268554687	-2.7046279296875	0		-1.041242919921875	-0.19269752502441406	0		-1.0454227294921874	-2.62179345703125	0		1.3306663818359374	-1.32732666015625	0		3.009274169921875	-1.094404296875	0		4.62697021484375	-0.4818034362792969	0		5.96065576171875	0.6737064819335937	0		-0.36797744750976563	5.85939794921875	0		
0.029127790451049806	0.0018255870342254639	0		0.26207254028320315	-2.712824462890625	0		-1.0110614013671875	-0.19704742431640626	0		-1.0880576171875	-2.624362060546875	0		1.3249073486328125	-1.333126220703125	0		3.005520263671875	-1.0981087646484375	0		4.63315185546875	-0.4875025634765625	0		5.95644482421875	0.6573128662109375	0		-0.36917160034179686	5.85942626953125	0		
-0.047662017822265625	-0.004312166213989258	0		0.23150717163085938	-2.711440673828125	0		-1.0117705078125	-0.19704974365234376	0		-1.0536951904296874	-2.6297412109375	0		1.3153006591796874	-1.328910888671875	0		3.02171875	-1.111081787109375	0		4.61840576171875	-0.49206060791015627	0		5.951025390625	0.6788283081054688	0		-0.37118637084960937	5.86046826171875	0		
0.02471858024597168	-0.0010437010526657105	0		0.23296966552734374	-2.709407958984375	0		-1.0474193115234376	-0.1966694793701172	0		-1.127167724609375	-2.620959228515625	0		1.193719482421875	-1.3255322265625	0		3.04312158203125	-1.1091591796875	0		4.6267333984375	-0.4949412536621094	0		5.95545361328125	0.6583981323242187	0		-0.40513134765625	5.85385107421875	0		
-0.04983500671386719	0.0037806200981140136	0		0.20548573303222656	-2.704076904296875	0		-1.040941162109375	-0.1897280731201172	0		-1.0497337646484375	-2.623771484375	0		1.3261102294921876	-1.3298743896484375	0		3.00670751953125	-1.09366943359375	0		4.62429296875	-0.4807756042480469	0		5.97000048828125	0.6583176879882813	0		-0.37180322265625	5.85952099609375	0		
0.03156414222717285	-0.002054405927658081	0		0.26091595458984373	-2.7096337890625	0		-1.041482421875	-0.18970620727539061	0		-1.087214599609375	-2.6203583984375	0		1.3166243896484375	-1.3257315673828125	0		3.05097265625	-1.1130784912109375	0		4.63069091796875	-0.48676553344726564	0		5.9647099609375	0.6793757934570313	0		-0.37241061401367187	5.85955029296875	0		
-0.05086297225952149	0.003838947057723999	0		0.23143609619140626	-2.709301025390625	0		-1.0100109252929688	-0.19402020263671876	0		-1.0537720947265625	-2.627693359375	0		1.3200352783203124	-1.33574609375	0		3.03754296875	-1.1079119873046874	0		4.63020703125	-0.4867344665527344	0		5.96072265625	0.6622247314453125	0		-0.25379225158691404	5.8693154296875	0		
0.025700515747070312	0.002040682077407837	0		0.256941650390625	-2.714560791015625	0		-1.010433837890625	-0.19399650573730468	0		-1.056232666015625	-2.62964794921875	0		1.3106473388671875	-1.3316431884765625	0		3.025114501953125	-1.1077886962890624	0		4.63163330078125	-0.5007694702148437	0		5.96406396484375	0.6793909301757812	0		-0.4083348388671875	5.8549658203125	0		
-0.05072092819213867	-0.004146943092346192	0		0.22858753967285156	-2.711260986328125	0		-1.00675634765625	-0.19101930236816406	0		-1.04569384765625	-2.636743896484375	0		1.31720361328125	-1.3387279052734375	0		3.0118125	-1.1016849365234376	0		4.634328125	-0.4958565673828125	0		5.95653125	0.6448500366210937	0		-0.37355767822265623	5.8596064453125	0		
0.030034997940063476	-0.0020124280452728273	0		0.24222314453125	-2.71541943359375	0		-1.034944580078125	-0.18270960998535157	0		-1.0779268798828125	-2.62839111328125	0		1.32586474609375	-1.3428533935546876	0		3.055486572265625	-1.1052132568359374	0		4.62711181640625	-0.48987353515625	0		5.96852490234375	0.6581766967773437	0		-0.3566478881835938	5.86642626953125	0		
0.029855575561523438	-0.0020324740409851075	0		0.25904632568359376	-2.709625732421875	0		-0.9651426391601563	-0.18445109558105469	0		-1.04119873046875	-2.631780029296875	0		1.3187303466796876	-1.335828125	0		3.02934814453125	-1.099024169921875	0		4.633857421875	-0.4960698852539063	0		5.9513125	0.6652742919921875	0		-0.2405438232421875	5.88017919921875	0		
0.02977738571166992	-0.0020669798851013182	0		0.2278805389404297	-2.7113349609375	0		-1.039253173828125	-0.18667083740234375	0		-1.0573206787109375	-2.6296171875	0		1.3165867919921874	-1.3388734130859374	0		3.018114990234375	-1.111015869140625	0		4.6307138671875	-0.5011877746582031	0		5.951259765625	0.664956298828125	0		-0.374690673828125	5.86058251953125	0		
0.029803516387939454	-0.0021161930561065675	0		0.2537769470214844	-2.71666748046875	0		-0.9692468872070312	-0.18843934631347656	0		-1.0593883056640625	-2.63161474609375	0		1.31151220703125	-1.344904296875	0		3.0181103515625	-1.1111475830078126	0		4.63072607421875	-0.5013639221191406	0		5.95128076171875	0.664587646484375	0		-0.42168197631835935	5.84404833984375	0		
